{
	"asset":{
		"generator":"Khronos glTF Blender I/O v4.4.55",
		"version":"2.0"
	},
	"extensionsUsed":[
		"KHR_materials_transmission",
		"KHR_materials_ior"
	],
	"scene":0,
	"scenes":[
		{
			"name":"Scene",
			"nodes":[
				5
			]
		}
	],
	"nodes":[
		{
			"mesh":0,
			"name":"Keyboard",
			"translation":[
				-2.1099560260772705,
				0.17153692245483398,
				-0.9199202656745911
			]
		},
		{
			"mesh":1,
			"name":"Camera",
			"rotation":[
				0.7071068286895752,
				0,
				0,
				0.7071068286895752
			],
			"scale":[
				0.030293114483356476,
				0.030293112620711327,
				0.030293114483356476
			],
			"translation":[
				0,
				0.0842689797282219,
				3.3498334884643555
			]
		},
		{
			"mesh":2,
			"name":"Grips"
		},
		{
			"mesh":3,
			"name":"Screen Glass",
			"translation":[
				0,
				0.0007089920109137893,
				0
			]
		},
		{
			"children":[
				1,
				2,
				3
			],
			"mesh":4,
			"name":"Top Body",
			"rotation":[
				-0.7071068286895752,
				0,
				0,
				0.7071068286895752
			],
			"translation":[
				0,
				0.12802904844284058,
				-1.4896491765975952
			]
		},
		{
			"children":[
				0,
				4
			],
			"mesh":5,
			"name":"Bottom Body",
			"rotation":[
				0,
				0.8330170512199402,
				0,
				0.553247332572937
			]
		}
	],
	"materials":[
		{
			"doubleSided":true,
			"emissiveFactor":[
				0.5,
				0.5,
				0.5
			],
			"emissiveTexture":{
				"index":0
			},
			"name":"Keyboard",
			"pbrMetallicRoughness":{
				"baseColorTexture":{
					"index":1
				},
				"metallicFactor":0.05000000074505806,
				"roughnessFactor":0.6500000357627869
			}
		},
		{
			"doubleSided":true,
			"extensions":{
				"KHR_materials_transmission":{
					"transmissionFactor":1
				},
				"KHR_materials_ior":{
					"ior":1.4500000476837158
				}
			},
			"name":"Material",
			"pbrMetallicRoughness":{
				"baseColorFactor":[
					0.007755971513688564,
					0.001695506856776774,
					0.8006623387336731,
					1
				],
				"metallicFactor":0,
				"roughnessFactor":0
			}
		},
		{
			"doubleSided":true,
			"name":"Body",
			"pbrMetallicRoughness":{
				"baseColorFactor":[
					0.5999131202697754,
					0.6897103786468506,
					0.7293217778205872,
					1
				],
				"roughnessFactor":0.3545454740524292
			}
		},
		{
			"doubleSided":true,
			"extensions":{
				"KHR_materials_transmission":{
					"transmissionFactor":1
				},
				"KHR_materials_ior":{
					"ior":1.4500000476837158
				}
			},
			"name":"Screen Glass",
			"pbrMetallicRoughness":{
				"baseColorFactor":[
					0.800000011920929,
					0.800000011920929,
					0.800000011920929,
					1
				],
				"metallicFactor":0,
				"roughnessFactor":0.10000000149011612
			}
		},
		{
			"doubleSided":true,
			"name":"Screen Mat",
			"pbrMetallicRoughness":{
				"baseColorFactor":[
					0,
					0,
					0,
					1
				],
				"metallicFactor":0,
				"roughnessFactor":0.5
			}
		},
		{
			"doubleSided":true,
			"emissiveFactor":[
				1,
				1,
				1
			],
			"name":"Screen Emitter",
			"pbrMetallicRoughness":{
				"metallicFactor":0,
				"roughnessFactor":0.5
			}
		},
		{
			"doubleSided":true,
			"emissiveFactor":[
				0.30000001192092896,
				0.30000001192092896,
				0.30000001192092896
			],
			"name":"Screen Mat Text",
			"pbrMetallicRoughness":{
				"metallicFactor":0,
				"roughnessFactor":0.5
			}
		},
		{
			"doubleSided":true,
			"name":"TouchPad",
			"pbrMetallicRoughness":{
				"baseColorFactor":[
					0.628951907157898,
					0.7231903076171875,
					0.764657199382782,
					1
				],
				"metallicFactor":0.8629559278488159,
				"roughnessFactor":0.31492483615875244
			}
		},
		{
			"doubleSided":true,
			"name":"Knurling",
			"pbrMetallicRoughness":{
				"baseColorTexture":{
					"index":2
				},
				"roughnessFactor":0.3545454740524292
			}
		}
	],
	"meshes":[
		{
			"name":"Plane",
			"primitives":[
				{
					"attributes":{
						"POSITION":0,
						"NORMAL":1,
						"TEXCOORD_0":2
					},
					"indices":3,
					"material":0
				}
			]
		},
		{
			"name":"Cube",
			"primitives":[
				{
					"attributes":{
						"POSITION":4,
						"NORMAL":5,
						"TEXCOORD_0":6
					},
					"indices":7,
					"material":1
				}
			]
		},
		{
			"name":"Plane.021",
			"primitives":[
				{
					"attributes":{
						"POSITION":8,
						"NORMAL":9,
						"TEXCOORD_0":10
					},
					"indices":11,
					"material":2
				}
			]
		},
		{
			"name":"Plane.023",
			"primitives":[
				{
					"attributes":{
						"POSITION":12,
						"NORMAL":13,
						"TEXCOORD_0":14
					},
					"indices":15,
					"material":3
				}
			]
		},
		{
			"name":"Plane.001",
			"primitives":[
				{
					"attributes":{
						"POSITION":16,
						"NORMAL":17,
						"TEXCOORD_0":18
					},
					"indices":19,
					"material":2
				},
				{
					"attributes":{
						"POSITION":20,
						"NORMAL":21,
						"TEXCOORD_0":22
					},
					"indices":23,
					"material":4
				},
				{
					"attributes":{
						"POSITION":24,
						"NORMAL":25,
						"TEXCOORD_0":26
					},
					"indices":27,
					"material":5
				},
				{
					"attributes":{
						"POSITION":28,
						"NORMAL":29,
						"TEXCOORD_0":30
					},
					"indices":31,
					"material":6
				}
			]
		},
		{
			"name":"Plane.019",
			"primitives":[
				{
					"attributes":{
						"POSITION":32,
						"NORMAL":33,
						"TEXCOORD_0":34
					},
					"indices":35,
					"material":2
				},
				{
					"attributes":{
						"POSITION":36,
						"NORMAL":37,
						"TEXCOORD_0":38
					},
					"indices":39,
					"material":7
				},
				{
					"attributes":{
						"POSITION":40,
						"NORMAL":41,
						"TEXCOORD_0":42
					},
					"indices":43,
					"material":8
				}
			]
		}
	],
	"textures":[
		{
			"sampler":0,
			"source":0
		},
		{
			"sampler":0,
			"source":0
		},
		{
			"sampler":1,
			"source":1
		}
	],
	"images":[
		{
			"mimeType":"image/png",
			"name":"KeyBoard_Texture_02_negate",
			"uri":"mac_textures/KeyBoard_Texture_02_negate.png"
		},
		{
			"mimeType":"image/png",
			"name":"Knurling texture-01",
			"uri":"mac_textures/Knurling%20texture-01.png"
		}
	],
	"accessors":[
		{
			"bufferView":0,
			"componentType":5126,
			"count":389436,
			"max":[
				4.373413562774658,
				0.01165750902146101,
				1.3672775030136108
			],
			"min":[
				-0.1496153473854065,
				-0.05155565217137337,
				-0.33885350823402405
			],
			"type":"VEC3"
		},
		{
			"bufferView":1,
			"componentType":5126,
			"count":389436,
			"type":"VEC3"
		},
		{
			"bufferView":2,
			"componentType":5126,
			"count":389436,
			"type":"VEC2"
		},
		{
			"bufferView":3,
			"componentType":5125,
			"count":2310264,
			"type":"SCALAR"
		},
		{
			"bufferView":4,
			"componentType":5126,
			"count":6144,
			"max":[
				0.8120098114013672,
				0.812050998210907,
				0.8120030164718628
			],
			"min":[
				-0.8120097517967224,
				-0.8119685649871826,
				-0.8120167851448059
			],
			"type":"VEC3"
		},
		{
			"bufferView":5,
			"componentType":5126,
			"count":6144,
			"type":"VEC3"
		},
		{
			"bufferView":6,
			"componentType":5126,
			"count":6144,
			"type":"VEC2"
		},
		{
			"bufferView":7,
			"componentType":5123,
			"count":9216,
			"type":"SCALAR"
		},
		{
			"bufferView":8,
			"componentType":5126,
			"count":5760,
			"max":[
				1.949232578277588,
				0.08040449768304825,
				0.04020936042070389
			],
			"min":[
				-1.949232578277588,
				-0.037053871899843216,
				-0.03538008779287338
			],
			"type":"VEC3"
		},
		{
			"bufferView":9,
			"componentType":5126,
			"count":5760,
			"type":"VEC3"
		},
		{
			"bufferView":10,
			"componentType":5126,
			"count":5760,
			"type":"VEC2"
		},
		{
			"bufferView":11,
			"componentType":5123,
			"count":32256,
			"type":"SCALAR"
		},
		{
			"bufferView":12,
			"componentType":5126,
			"count":50852,
			"max":[
				2.497365713119507,
				0.06327944248914719,
				3.469418525695801
			],
			"min":[
				-2.497365713119507,
				0.06027927249670029,
				-0.02258342131972313
			],
			"type":"VEC3"
		},
		{
			"bufferView":13,
			"componentType":5126,
			"count":50852,
			"type":"VEC3"
		},
		{
			"bufferView":14,
			"componentType":5126,
			"count":50852,
			"type":"VEC2"
		},
		{
			"bufferView":15,
			"componentType":5123,
			"count":304128,
			"type":"SCALAR"
		},
		{
			"bufferView":16,
			"componentType":5126,
			"count":55513,
			"max":[
				2.4975974559783936,
				0.15449661016464233,
				3.469655990600586
			],
			"min":[
				-2.4975974559783936,
				-0.01900673657655716,
				-0.02282087691128254
			],
			"type":"VEC3"
		},
		{
			"bufferView":17,
			"componentType":5126,
			"count":55513,
			"type":"VEC3"
		},
		{
			"bufferView":18,
			"componentType":5126,
			"count":55513,
			"type":"VEC2"
		},
		{
			"bufferView":19,
			"componentType":5123,
			"count":330072,
			"type":"SCALAR"
		},
		{
			"bufferView":20,
			"componentType":5126,
			"count":19492,
			"max":[
				2.4819369316101074,
				0.10778675973415375,
				3.4535844326019287
			],
			"min":[
				-2.4819369316101074,
				0.04656735807657242,
				-0.00699941860511899
			],
			"type":"VEC3"
		},
		{
			"bufferView":21,
			"componentType":5126,
			"count":19492,
			"type":"VEC3"
		},
		{
			"bufferView":22,
			"componentType":5126,
			"count":19492,
			"type":"VEC2"
		},
		{
			"bufferView":23,
			"componentType":5123,
			"count":113136,
			"type":"SCALAR"
		},
		{
			"bufferView":24,
			"componentType":5126,
			"count":4573,
			"max":[
				2.3618640899658203,
				0.10797704011201859,
				3.237013101577759
			],
			"min":[
				-2.3618640899658203,
				0.10763875395059586,
				0.3032219707965851
			],
			"type":"VEC3"
		},
		{
			"bufferView":25,
			"componentType":5126,
			"count":4573,
			"type":"VEC3"
		},
		{
			"bufferView":26,
			"componentType":5126,
			"count":4573,
			"type":"VEC2"
		},
		{
			"bufferView":27,
			"componentType":5123,
			"count":26592,
			"type":"SCALAR"
		},
		{
			"bufferView":28,
			"componentType":5126,
			"count":629,
			"max":[
				0.5684731602668762,
				0.06316656619310379,
				0.26344266533851624
			],
			"min":[
				-0.568473219871521,
				0.06288522481918335,
				0.023834310472011566
			],
			"type":"VEC3"
		},
		{
			"bufferView":29,
			"componentType":5126,
			"count":629,
			"type":"VEC3"
		},
		{
			"bufferView":30,
			"componentType":5126,
			"count":629,
			"type":"VEC2"
		},
		{
			"bufferView":31,
			"componentType":5123,
			"count":3456,
			"type":"SCALAR"
		},
		{
			"bufferView":32,
			"componentType":5126,
			"count":50021,
			"max":[
				2.4993484020233154,
				0.19139906764030457,
				1.981082797050476
			],
			"min":[
				-2.4993481636047363,
				-0.006910040974617004,
				-1.510357141494751
			],
			"type":"VEC3"
		},
		{
			"bufferView":33,
			"componentType":5126,
			"count":50021,
			"type":"VEC3"
		},
		{
			"bufferView":34,
			"componentType":5126,
			"count":50021,
			"type":"VEC2"
		},
		{
			"bufferView":35,
			"componentType":5123,
			"count":296976,
			"type":"SCALAR"
		},
		{
			"bufferView":36,
			"componentType":5126,
			"count":1197,
			"max":[
				1.0273051261901855,
				0.19139759242534637,
				1.7568833827972412
			],
			"min":[
				-1.027304768562317,
				0.19067539274692535,
				0.5983690023422241
			],
			"type":"VEC3"
		},
		{
			"bufferView":37,
			"componentType":5126,
			"count":1197,
			"type":"VEC3"
		},
		{
			"bufferView":38,
			"componentType":5126,
			"count":1197,
			"type":"VEC2"
		},
		{
			"bufferView":39,
			"componentType":5123,
			"count":6720,
			"type":"SCALAR"
		},
		{
			"bufferView":40,
			"componentType":5126,
			"count":675,
			"max":[
				2.470397710800171,
				0.1908106803894043,
				0.3983381390571594
			],
			"min":[
				-2.470397710800171,
				0.1892489194869995,
				-1.214500069618225
			],
			"type":"VEC3"
		},
		{
			"bufferView":41,
			"componentType":5126,
			"count":675,
			"type":"VEC3"
		},
		{
			"bufferView":42,
			"componentType":5126,
			"count":675,
			"type":"VEC2"
		},
		{
			"bufferView":43,
			"componentType":5123,
			"count":3504,
			"type":"SCALAR"
		}
	],
	"bufferViews":[
		{
			"buffer":0,
			"byteLength":4673232,
			"byteOffset":0,
			"target":34962
		},
		{
			"buffer":0,
			"byteLength":4673232,
			"byteOffset":4673232,
			"target":34962
		},
		{
			"buffer":0,
			"byteLength":3115488,
			"byteOffset":9346464,
			"target":34962
		},
		{
			"buffer":0,
			"byteLength":9241056,
			"byteOffset":12461952,
			"target":34963
		},
		{
			"buffer":0,
			"byteLength":73728,
			"byteOffset":21703008,
			"target":34962
		},
		{
			"buffer":0,
			"byteLength":73728,
			"byteOffset":21776736,
			"target":34962
		},
		{
			"buffer":0,
			"byteLength":49152,
			"byteOffset":21850464,
			"target":34962
		},
		{
			"buffer":0,
			"byteLength":18432,
			"byteOffset":21899616,
			"target":34963
		},
		{
			"buffer":0,
			"byteLength":69120,
			"byteOffset":21918048,
			"target":34962
		},
		{
			"buffer":0,
			"byteLength":69120,
			"byteOffset":21987168,
			"target":34962
		},
		{
			"buffer":0,
			"byteLength":46080,
			"byteOffset":22056288,
			"target":34962
		},
		{
			"buffer":0,
			"byteLength":64512,
			"byteOffset":22102368,
			"target":34963
		},
		{
			"buffer":0,
			"byteLength":610224,
			"byteOffset":22166880,
			"target":34962
		},
		{
			"buffer":0,
			"byteLength":610224,
			"byteOffset":22777104,
			"target":34962
		},
		{
			"buffer":0,
			"byteLength":406816,
			"byteOffset":23387328,
			"target":34962
		},
		{
			"buffer":0,
			"byteLength":608256,
			"byteOffset":23794144,
			"target":34963
		},
		{
			"buffer":0,
			"byteLength":666156,
			"byteOffset":24402400,
			"target":34962
		},
		{
			"buffer":0,
			"byteLength":666156,
			"byteOffset":25068556,
			"target":34962
		},
		{
			"buffer":0,
			"byteLength":444104,
			"byteOffset":25734712,
			"target":34962
		},
		{
			"buffer":0,
			"byteLength":660144,
			"byteOffset":26178816,
			"target":34963
		},
		{
			"buffer":0,
			"byteLength":233904,
			"byteOffset":26838960,
			"target":34962
		},
		{
			"buffer":0,
			"byteLength":233904,
			"byteOffset":27072864,
			"target":34962
		},
		{
			"buffer":0,
			"byteLength":155936,
			"byteOffset":27306768,
			"target":34962
		},
		{
			"buffer":0,
			"byteLength":226272,
			"byteOffset":27462704,
			"target":34963
		},
		{
			"buffer":0,
			"byteLength":54876,
			"byteOffset":27688976,
			"target":34962
		},
		{
			"buffer":0,
			"byteLength":54876,
			"byteOffset":27743852,
			"target":34962
		},
		{
			"buffer":0,
			"byteLength":36584,
			"byteOffset":27798728,
			"target":34962
		},
		{
			"buffer":0,
			"byteLength":53184,
			"byteOffset":27835312,
			"target":34963
		},
		{
			"buffer":0,
			"byteLength":7548,
			"byteOffset":27888496,
			"target":34962
		},
		{
			"buffer":0,
			"byteLength":7548,
			"byteOffset":27896044,
			"target":34962
		},
		{
			"buffer":0,
			"byteLength":5032,
			"byteOffset":27903592,
			"target":34962
		},
		{
			"buffer":0,
			"byteLength":6912,
			"byteOffset":27908624,
			"target":34963
		},
		{
			"buffer":0,
			"byteLength":600252,
			"byteOffset":27915536,
			"target":34962
		},
		{
			"buffer":0,
			"byteLength":600252,
			"byteOffset":28515788,
			"target":34962
		},
		{
			"buffer":0,
			"byteLength":400168,
			"byteOffset":29116040,
			"target":34962
		},
		{
			"buffer":0,
			"byteLength":593952,
			"byteOffset":29516208,
			"target":34963
		},
		{
			"buffer":0,
			"byteLength":14364,
			"byteOffset":30110160,
			"target":34962
		},
		{
			"buffer":0,
			"byteLength":14364,
			"byteOffset":30124524,
			"target":34962
		},
		{
			"buffer":0,
			"byteLength":9576,
			"byteOffset":30138888,
			"target":34962
		},
		{
			"buffer":0,
			"byteLength":13440,
			"byteOffset":30148464,
			"target":34963
		},
		{
			"buffer":0,
			"byteLength":8100,
			"byteOffset":30161904,
			"target":34962
		},
		{
			"buffer":0,
			"byteLength":8100,
			"byteOffset":30170004,
			"target":34962
		},
		{
			"buffer":0,
			"byteLength":5400,
			"byteOffset":30178104,
			"target":34962
		},
		{
			"buffer":0,
			"byteLength":7008,
			"byteOffset":30183504,
			"target":34963
		}
	],
	"samplers":[
		{
			"magFilter":9729,
			"minFilter":9987
		},
		{
			"magFilter":9729,
			"minFilter":9987,
			"wrapS":33071,
			"wrapT":33071
		}
	],
	"buffers":[
		{
			"byteLength":30190512,
			"uri":"MacBook_Air_13_.bin"
		}
	]
}
